PathFileType	4	(X/Y/Z)	C:/Users/beibeiliu/ov580/test_trc\sequence.26_training_dense_left.trc
DataRate	CameraRate	NumFrames	NumMarkers	Units	OrigDataRate	OrigDataStartFrame	OrigNumFrames
120	120	21	19	mm	120	251	400
Frame#	Time	ThumbCMC			ThumbMCP			ThumbIP			ThumbTip			IndexMCP			IndexPIP			IndexTip			MiddleMCP			MiddlePIP			MiddleTip			RingMCP			RingPIP			RingTip			PinkyMCP			PinkyPIP			PinkyTip			BackHand1			BackHand2			BackHand3	
		X0	Y0	Z0	X1	Y1	Z1	X2	Y2	Z2	X3	Y3	Z3	X4	Y4	Z4	X5	Y5	Z5	X6	Y6	Z6	X7	Y7	Z7	X8	Y8	Z8	X9	Y9	Z9	X10	Y10	Z10	X11	Y11	Z11	X12	Y12	Z12	X13	Y13	Z13	X14	Y14	Z14	X15	Y15	Z15	X16	Y16	Z16	X17	Y17	Z17	X18	Y18	Z18	
250	2.08333	-268.955	-16.2226	22.8405	-268.246	5.83592	7.2618	-269.443	17.985	-10.9711	-273.197	28.7906	-19.4766	-233.68	-7.68813	-28.5517	-216.414	7.51149	-11.8966	-237.65	-3.39276	13.1296	-213.099	-15.593	-17.6003	-212.434	3.65308	2.47824	-233.455	-11.4026	19.2703	-206.063	-28.1833	-11.7104	-200.712	-8.31936	6.55279	-222.983	-16.2902	19.9512	-200.072	-54.3372	-1.35196	-183.263	-51.2397	-11.1038	-170.458	-52.0282	-22.3932	-240.96	-57.606	12.1861	-253.326	-58.1083	36.3885	-264.148	-43.5285	17.4509	
251	2.09167	-269.917	-13.5157	24.3667	-267.389	5.89763	10.0658	-270.098	18.809	-9.17311	-275.646	29.282	-22.9979	-230.464	-4.43644	-29.0829	-219.735	13.2093	-12.1008	-235.481	3.14097	9.56322	-215.107	-10.1016	-20.2057	-210.419	7.67701	0.185683	-232.705	-8.37899	16.4639	-200.493	-20.6409	-15.6311	-201.424	0.258841	0.372202	-220.109	-12.806	18.384	-195.498	-46.8086	-3.4288	-179.873	-44.2473	-15.0492	-165.014	-43.4662	-30.3337	-234.202	-54.0804	8.76052	-246.399	-57.689	35.6519	-257.599	-45.5424	15.2742	
252	2.1	-264.41	-14.8087	24.489	-268.46	6.96605	5.16323	-272.639	18.8103	-7.8886	-279.637	31.024	-19.803	-233.436	-3.57239	-30.6997	-219.718	15.8107	-12.1681	-235.014	2.60574	9.63864	-211.877	-5.80703	-22.1894	-211.875	13.5039	-2.81842	-234.308	-7.5046	14.1816	-199.83	-16.2733	-17.7486	-199.407	4.68943	-4.24162	-215.132	-6.38151	17.2158	-186.054	-42.6457	-6.23123	-175.371	-35.4823	-22.22	-163.393	-34.4515	-35.0111	-228.416	-50.0659	10.3034	-239.858	-55.4426	34.1717	-254.716	-43.2356	14.3423	
253	2.10833	-265.792	-11.2904	24.7232	-264.073	6.99462	6.94424	-274.355	19.6945	-8.71905	-283.652	30.9896	-18.7936	-228.734	-0.981773	-32.3167	-222.629	20.4938	-18.5847	-236.096	8.50432	6.83127	-212.819	-1.59079	-24.7828	-211.88	18.4879	-7.09174	-229.432	-2.11329	13.0136	-196.454	-9.91373	-20.1615	-197.86	9.28632	-3.99413	-215.864	-5.31618	15.2716	-184.45	-37.343	-9.48255	-172.628	-30.5447	-24.5696	-161.259	-31.8163	-34.9598	-222.261	-48.5412	6.19315	-232.086	-53.4405	31.0662	-251.786	-38.5072	12.4132	
254	2.11667	-259.932	-12.3807	18.9331	-266.036	8.33131	4.57049	-273.16	18.4526	-9.13678	-284.143	29.0026	-23.0766	-233.973	-0.0384207	-34.2584	-225.582	22.6499	-20.4531	-236.827	5.82533	4.2759	-212.605	-4.59714	-27.2952	-211.878	20.8957	-9.8693	-230.879	-1.62147	11.8215	-197.483	-9.71805	-23.0933	-202.043	14.1802	-7.4527	-214.37	-1.25792	12.6556	-181.955	-32.9766	-10.6839	-174.383	-26.9036	-26.7183	-161.692	-25.8445	-42.0237	-220.393	-45.1452	5.17401	-228.538	-48.0835	31.2043	-248.6	-38.5568	14.3475	
255	2.125	-257.467	-11.9423	18.9707	-263.765	6.6738	4.59701	-274.193	17.503	-10.9365	-284.024	26.5195	-25.4539	-234.825	-1.59923	-36.3962	-224.736	22.0318	-21.2166	-233.233	7.92336	2.14511	-217.328	0.164703	-31.1277	-211.331	20.9613	-14.2085	-226.497	2.27365	10.131	-201.012	-8.09884	-26.7487	-200.578	15.8791	-10.4043	-216.808	2.23608	9.6539	-182.615	-30.3497	-17.3183	-172.484	-24.9977	-26.9196	-161.045	-23.6621	-45.0678	-218.359	-42.5926	5.01918	-226.135	-46.679	31.1441	-244.076	-39.7975	15.5654	
256	2.13333	-260.653	-11.2311	22.1499	-266.648	6.86191	3.93576	-272.785	14.4726	-14.3546	-288.485	24.2823	-26.38	-239.478	-2.11846	-36.4992	-231.548	23.843	-22.9787	-236.584	6.7084	0.685978	-214.815	-2.81695	-31.6048	-213.574	23.0357	-16.8098	-227.5	6.41512	8.25996	-202.236	-4.09373	-29.7958	-202.532	17.4082	-16.0416	-215.486	5.75096	5.98621	-184.316	-28.8491	-17.5186	-178.863	-23.6482	-34.0663	-168.09	-21.6149	-48.3505	-216.313	-40.9667	4.34825	-224.389	-46.4129	30.9727	-242.301	-39.8408	15.5679	
257	2.14167	-263.066	-10.2073	22.8002	-270.085	5.82999	2.88943	-275.392	13.3198	-12.1069	-288.142	22.5476	-26.215	-241.831	1.69589	-39.8109	-230.833	21.9301	-24.5597	-236.416	9.01109	-1.70679	-222.745	0.40703	-35.737	-217.693	23.5174	-14.9423	-232.025	6.75843	6.32108	-204.986	-8.05738	-30.3099	-205.056	18.3859	-19.8984	-219.719	9.13651	2.35071	-187.1	-26.2971	-19.5302	-179.592	-20.789	-37.667	-169.144	-20.6836	-52.4245	-217.601	-39.1147	2.60244	-223.278	-45.4516	31.4154	-242.329	-37.3009	10.5591	
258	2.15	-262.728	-11.0614	22.1725	-268.122	5.65162	6.99202	-284.439	14.6177	-11.7216	-293.259	20.6256	-22.66	-244.644	-0.509149	-38.4722	-235.214	22.4032	-28.0247	-240.127	10.7176	-1.82416	-222.456	-1.15263	-35.4093	-224.229	24.7052	-17.5037	-231.488	3.78535	6.58302	-209.033	-4.12736	-32.7875	-212.948	19.8643	-20.7282	-221.052	6.98344	5.69049	-191.978	-25.9423	-24.738	-181.862	-20.8939	-41.1145	-177.496	-17.8321	-53.9725	-218.23	-40.5685	5.1263	-226.816	-43.6642	29.4757	-245.055	-36.9833	13.5762	
259	2.15833	-266.717	-10.4044	20.8562	-274.726	5.57668	5.26301	-286.845	12.0359	-13.705	-300.07	20.79	-20.0847	-248.013	-3.02425	-38.5138	-244.157	23.4897	-30.1236	-246.503	12.0057	-1.46507	-228.335	-1.79733	-36.1678	-225.797	23.8154	-22.3253	-238.275	4.80685	5.97318	-210.885	-5.00835	-33.3167	-213.675	17.805	-23.7144	-226.458	7.75031	2.91669	-198.253	-26.5746	-21.2926	-187.419	-21.0074	-39.5948	-185.292	-17.9932	-59.8184	-219.988	-42.4403	6.90975	-227.886	-42.6192	31.4208	-252.481	-38.2472	13.6926	
260	2.16667	-267.997	-10.7502	22.6496	-278.89	4.54237	6.15533	-290.719	10.9669	-9.99098	-301.666	18.5874	-18.4828	-252.292	-2.60831	-38.6063	-244.129	19.6701	-30.8507	-250.241	11.3415	-0.636721	-234.665	-3.45805	-35.2911	-231.483	23.2433	-22.7219	-242.019	6.07309	6.67	-220.211	-8.69488	-32.2658	-220.687	17.3629	-25.7421	-227.836	10.2004	1.43302	-199.815	-26.4862	-26.8554	-196.27	-22.9301	-39.466	-191.556	-19.6015	-62.3567	-223.075	-40.5376	7.52039	-228.84	-42.1715	32.7628	-250.203	-37.4819	16.9407	
261	2.175	-271.31	-10.2761	28.0143	-282.344	5.18989	7.85107	-295.307	10.3124	-11.4472	-309.077	16.704	-18.5858	-262.717	-2.19592	-37.0141	-253.731	22.3622	-26.924	-251.58	8.98992	-0.187335	-239.86	-2.59658	-35.6925	-234.243	22.623	-20.2656	-241.498	8.50662	5.88851	-222.627	-9.26049	-31.7477	-221.908	18.834	-22.7927	-232.835	11.0682	2.2161	-207.131	-26.697	-22.7783	-201.316	-21.334	-39.8366	-198.542	-17.3941	-61.1249	-229.26	-38.778	4.54236	-230.752	-42.222	31.39	-259.949	-36.9486	18.8899	
262	2.18333	-274.804	-8.78843	28.9763	-282.977	4.82303	7.04724	-296.907	12.0138	-4.05225	-315.798	18.7228	-18.2907	-262.701	-1.92249	-36.0727	-257.948	23.3157	-24.9339	-255.546	8.18409	2.05341	-244.553	-3.39715	-32.7397	-240.776	24.3173	-20.587	-245.544	6.98051	8.02741	-226.84	-6.45971	-32.2845	-227.407	19.4193	-21.3661	-237.07	12.4236	2.18765	-208.565	-26.5024	-24.5709	-203.605	-20.2934	-43.1427	-202.703	-20.3865	-57.5763	-236.809	-38.4887	9.47492	-234.643	-40.8089	37.2069	-258.79	-34.9338	21.0727	
263	2.19167	-280.068	-5.51981	30.8467	-290.046	8.22089	9.31122	-302.745	14.849	-5.49815	-315.033	20.4694	-16.3462	-269.114	0.955187	-34.3675	-259.276	24.9363	-24.0942	-261.783	13.2866	2.02711	-247.75	-1.38675	-32.3765	-242.183	25.8219	-18.0016	-250.62	6.4711	9.76511	-233.726	-5.47396	-32.0295	-229.217	19.3035	-23.8723	-240.206	13.4091	2.63479	-214.833	-23.9342	-22.7007	-210.463	-19.0079	-43.5708	-205.175	-18.5291	-60.8676	-235.905	-36.1284	8.00049	-237.276	-37.7233	37.0108	-265.708	-32.5737	18.1831	
264	2.2	-277.087	-3.98749	31.7161	-286.527	11.4594	14.2168	-304.263	18.2485	-5.62437	-315.136	24.7537	-12.7446	-267.624	1.37439	-33.6149	-263.268	26.499	-27.3273	-262.092	16.8101	2.04227	-246.406	3.39818	-33.2889	-246.063	27.5044	-18.6408	-253.726	12.1148	8.37813	-232.84	-5.12289	-30.2883	-234.67	21.5963	-22.4063	-241.711	15.0381	2.5154	-215.073	-23.1691	-24.7563	-212.489	-20.0194	-39.3822	-210.7	-16.6352	-56.7942	-241.426	-33.1051	9.31079	-240.084	-35.2298	35.0393	-265.74	-32.0154	23.117	
265	2.20833	-280.974	0.203918	28.6318	-285.765	14.8896	13.1467	-302.687	22.6099	-0.696859	-313.59	28.576	-13.5719	-270.747	0.948418	-30.5358	-261.243	28.825	-23.5014	-261.684	18.7337	1.35467	-251.857	1.94201	-31.6827	-242.751	27.5033	-21.2641	-251.919	13.7512	8.57544	-236.999	-1.77087	-32.0576	-231.428	22.2919	-21.862	-239.887	17.3842	2.24732	-219.146	-23.7879	-22.2368	-215.152	-19.3096	-43.2456	-212.028	-17.9771	-60.1858	-242.489	-34.3255	11.7422	-242.796	-35.6205	34.9276	-270.536	-28.6352	23.2967	
266	2.21667	-280.73	4.92701	29.5266	-285.956	18.8111	11.2453	-300.524	27.8163	-1.5248	-312.394	35.2473	-14.5679	-271.892	3.20067	-31.0842	-261.501	30.235	-28.5789	-262.018	23.4059	1.02112	-250.25	1.72156	-32.4508	-242.422	28.4495	-20.9966	-252.193	14.3458	10.0262	-239.094	-4.7899	-31.8941	-231.908	20.4	-24.5655	-238.534	14.7225	6.07197	-223.857	-26.1393	-24.644	-217.718	-24.8421	-42.3787	-217.76	-23.8663	-59.7298	-248.137	-33.7181	9.30951	-243.127	-32.9397	37.5179	-271.937	-24.2918	25.4751	
267	2.225	-279.935	11.157	30.9518	-287.259	27.0703	12.3842	-295.081	35.7419	-1.58617	-310.224	46.4959	-13.3973	-275.368	6.78751	-31.524	-257.99	31.8524	-26.6361	-258.26	21.5981	2.37741	-253.019	5.15464	-34.0676	-241.244	27.0955	-23.8134	-250.99	19.6723	8.35643	-239.194	-8.96364	-31.5022	-232.023	19.2587	-24.6228	-236.488	16.683	1.32401	-231.538	-29.6338	-22.6265	-226.137	-30.0127	-40.7868	-223.747	-32.1839	-58.0703	-249.834	-34.2506	11.086	-247.621	-31.3086	39.735	-273.546	-19.4903	26.4974	
268	2.23333	-278.474	18.5545	32.486	-280.366	32.3705	11.0175	-294.39	46.2672	-4.26369	-300.401	56.0628	-12.501	-275.184	16.1109	-33.6845	-255.721	32.7662	-32.3446	-254.773	25.9408	1.62355	-253.988	4.35532	-34.061	-236.516	25.9044	-21.4859	-244.993	22.0671	5.67754	-241.976	-9.28272	-32.9628	-232.302	15.0171	-27.9404	-235.548	15.7425	-2.84988	-235.008	-35.117	-22.6893	-234.95	-33.8853	-40.2369	-231.923	-35.7192	-61.3206	-257.752	-31.7331	12.1837	-255.522	-27.9147	41.0104	-277.698	-15.5231	23.6191	
269	2.24167	-275.202	27.7112	34.3088	-276.908	42.6967	11.3365	-283.77	53.2345	-3.20814	-293.678	68.1978	-15.0325	-275.161	17.711	-31.1663	-249.877	31.8812	-33.1154	-249.649	31.3251	-1.94349	-256.859	2.0888	-32.5197	-234.827	21.9588	-28.1043	-240.493	20.7074	4.44436	-249.161	-6.47922	-34.8331	-230.914	13.8369	-27.7965	-233.769	11.5936	1.21483	-245.424	-34.7833	-19.9753	-243.31	-36.3954	-39.4762	-242.261	-40.2318	-55.8141	-263.553	-25.5678	13.861	-264.5	-23.0502	40.5116	-281.148	-3.06632	28.6431	
270	2.25	-267.719	28.7937	32.288	-268.963	47.9607	9.6661	-274.917	61.1639	-5.05107	-279.591	74.0404	-13.5458	-273.358	22.2244	-32.8791	-245.634	29.602	-34.1422	-242.113	31.104	-4.33729	-258.016	8.58107	-34.9629	-232.848	19.6784	-29.2033	-241.095	19.6866	5.37534	-253.722	-7.50701	-33.5644	-230.091	5.69526	-32.5093	-234.499	11.9002	-0.594746	-254.894	-33.6139	-18.3344	-255.873	-34.3626	-36.0677	-256.308	-43.142	-58.1529	-269.887	-21.4197	14.3212	-265.528	-18.58	40.77	-282.718	1.61702	28.737	
